HIERARCHY
ROOT Hips
{
  OFFSET 1.44925e-005 102.336 -0.101585
  CHANNELS 6 Xposition Yposition Zposition Zrotation Xrotation Yrotation
  JOINT LeftUpLeg
  {
    OFFSET 8.9458 -8.66707 0.101652
    CHANNELS 3 Zrotation Xrotation Yrotation
    JOINT LeftLeg
    {
      OFFSET 0 -44.4227 1.3727
      CHANNELS 3 Zrotation Xrotation Yrotation
      JOINT LeftFoot
      {
        OFFSET -0.253549 -42.0924 -1.46059
        CHANNELS 3 Zrotation Xrotation Yrotation
        JOINT LeftToes
        {
          OFFSET -0.04 -4.41509 8.4991
          CHANNELS 3 Zrotation Xrotation Yrotation
          End Site
          {
            OFFSET 0.08 -0.047448 9.77979
          }
        }
      }
    }
  }
  JOINT Spine
  {
    OFFSET 0 11.8905 0
    CHANNELS 3 Zrotation Xrotation Yrotation
    JOINT Spine1
    {
      OFFSET 0 25.6574 0.127663
      CHANNELS 3 Zrotation Xrotation Yrotation
      JOINT RightShoulder
      {
        OFFSET -8.99 -0.362252 -0.22
        CHANNELS 3 Zrotation Xrotation Yrotation
        JOINT RightArm
        {
          OFFSET -10.2827 -0.00338 0.322123
          CHANNELS 3 Zrotation Xrotation Yrotation
          JOINT RightForeArm
          {
            OFFSET -26.364 0.099144 -1.42434
            CHANNELS 3 Zrotation Xrotation Yrotation
            JOINT RightHand
            {
              OFFSET -22.0324 0.085362 1.02216
              CHANNELS 3 Zrotation Xrotation Yrotation
              End Site
              {
                OFFSET -13.3284 -0.6 1.50291
              }
            }
          }
        }
      }
      JOINT LeftShoulder1
      {
        OFFSET 8.99 -0.362252 -0.22
        CHANNELS 3 Zrotation Xrotation Yrotation
        JOINT LeftArm
        {
          OFFSET 10.2827 -0.00337999 0.322123
          CHANNELS 3 Zrotation Xrotation Yrotation
          JOINT LeftForeArm
          {
            OFFSET 26.2597 0.099144 -1.42434
            CHANNELS 3 Zrotation Xrotation Yrotation
            JOINT LeftHand
            {
              OFFSET 22.0902 0.085362 1.02216
              CHANNELS 3 Zrotation Xrotation Yrotation
              End Site
              {
                OFFSET 13.419 -0.6 1.50291
              }
            }
          }
        }
      }
      JOINT Head
      {
        OFFSET 0 8.73416 0.011341
        CHANNELS 3 Zrotation Xrotation Yrotation
        End Site
        {
          OFFSET -0.29 12.7742 2.51395
        }
      }
    }
  }
  JOINT RightUpLeg
  {
    OFFSET -8.9458 -8.66707 0.101652
    CHANNELS 3 Zrotation Xrotation Yrotation
    JOINT RightLeg
    {
      OFFSET 0 -44.4227 1.3727
      CHANNELS 3 Zrotation Xrotation Yrotation
      JOINT RightFoot
      {
        OFFSET 0.253549 -42.0924 -1.46059
        CHANNELS 3 Zrotation Xrotation Yrotation
        JOINT RightToes
        {
          OFFSET 0.04 -4.41509 8.4991
          CHANNELS 3 Zrotation Xrotation Yrotation
          End Site
          {
            OFFSET -0.08 -0.137448 9.77979
          }
        }
      }
    }
  }
}
MOTION
Frames:	17
Frame Time:	0.0333333
107.042 99.3945 5.17805 -6.48939 -1.6837 -94.5717 -8.30162 4.12311 -0.0661365 1.2398 23.2293 21.9896 -1.15979 -23.552 -0.0357643 -1.29703e-009 8.75252e-006 -1.46991e-008 -4.66341 19.1017 0.101003 -0.192611 -2.07452 -0.767942 36.9206 1.79065 0.150555 40.6055 -25.8105 1.63228 12.5562 45.9118 -3.01248 -15.7606 9.08335 0.873638 -43.5087 3.48752 -3.45916 -27.3411 -14.2466 -1.63255 4.04089 30.1149 -33.304 5.82328 9.61819 -0.917488 0.883164 -16.2702 -1.57248 -3.09915 -32.0056 -2.55261 -3.44183 75.3121 -13.992 9.66998 -12.891 0.244991 0.0462048 0.000530888 0.662642 
102.125 99.3634 5.09883 -6.54781 -1.47065 -93.2143 -7.62737 9.0958 1.44691 1.05992 19.8463 19.6231 -0.7133 -24.1901 0.0270668 -1.29703e-009 8.75252e-006 -1.46991e-008 -4.15767 19.1436 -0.629202 0.5961 -2.00689 -1.44938 37.0061 1.79463 0.151013 37.1628 -25.1441 -5.60902 11.2373 44.4363 0.0884269 -15.2762 9.13707 0.655143 -43.1663 3.46392 -3.46398 -27.1922 -17.5281 -4.35918 6.63342 31.102 -41.2486 5.82328 9.61819 -0.917488 1.39212 -16.2932 -1.4155 -3.58545 -33.9391 -5.02421 -2.07935 63.6925 -15.838 10.3459 -14.4599 0.408636 0.0462048 0.000530888 0.662642 
97.1419 98.9933 5.01625 -6.72505 -1.25883 -91.8918 -6.75326 14.0078 2.94871 0.704661 16.921 16.9893 -1.61902 -25.1136 -0.116128 -1.29703e-009 8.75252e-006 -1.46991e-008 -3.3347 19.1147 -1.31336 1.24526 -1.54287 -2.05024 37.0412 1.79657 0.145507 34.215 -24.393 -11.8789 10.4026 43.2712 2.26213 -14.8673 9.20118 0.30158 -42.955 3.44843 -3.46501 -27.3554 -19.8114 -7.53178 9.33208 31.6904 -48.157 5.82328 9.61819 -0.917488 1.73401 -16.5268 -1.413 -3.84681 -33.825 -6.88283 -1.36158 49.1917 -15.5831 10.7893 -14.4787 0.437608 0.0462048 0.000530888 0.662642 
91.9493 98.0562 4.85111 -7.31996 -1.28687 -90.6999 -5.96883 18.689 4.49165 0.523571 15.8294 13.9279 -2.84852 -25.9702 -0.32723 -1.29703e-009 8.75252e-006 -1.46991e-008 -3.11398 19.3127 -1.8379 2.2457 -1.0394 -2.71319 36.9794 1.79723 0.153463 31.726 -23.9528 -16.6316 10.4284 42.7875 2.35211 -14.3595 9.26202 -0.00416087 -42.7225 3.4303 -3.4639 -28.1152 -21.8001 -10.3672 11.9281 32.0137 -53.8506 5.82328 9.61819 -0.917488 1.6582 -16.7497 -1.36884 -3.78529 -31.9857 -7.72816 -1.04031 34.7302 -14.623 11.4945 -14.8375 0.517912 0.0462048 0.000530888 0.662642 
86.3693 96.6731 4.51695 -8.08931 -1.56112 -89.123 -5.28231 22.6522 5.606 0.945226 17.2639 10.8941 -3.86856 -26.9441 -0.528582 -1.29703e-009 8.75252e-006 -1.46991e-008 -3.89808 19.244 -2.34404 3.88848 -0.386841 -3.65225 36.9537 1.79684 0.162329 29.3873 -24.3872 -20.0971 10.8986 43.1849 0.903567 -14.1842 9.28482 -0.131607 -42.2777 3.38774 -3.44539 -29.5116 -23.2625 -12.5823 13.7379 32.0073 -57.7736 5.82328 9.61819 -0.917488 1.27024 -16.9441 -1.34493 -3.96025 -29.3277 -7.95786 -0.706854 24.3632 -14.2168 12.9288 -16.2616 0.764645 0.0462048 0.000530888 0.662642 
80.4506 95.4162 4.08669 -8.29975 -1.52756 -87.0296 -3.94848 25.5414 4.97592 1.49732 19.7833 9.40504 -6.57716 -27.33 -1.02503 -1.29703e-009 8.75252e-006 -1.46991e-008 -4.18779 18.1891 -2.98908 5.64133 0.591733 -4.68948 37.0219 1.79202 0.144779 27.0762 -25.6274 -23.1677 11.0468 43.2842 -0.500757 -14.5639 9.27571 -0.202601 -41.813 3.34114 -3.42109 -30.9012 -23.6335 -13.8752 14.5287 31.9147 -59.5913 5.82328 9.61819 -0.917488 0.786388 -16.8408 -1.50823 -3.86974 -27.1742 -7.20015 -0.0635032 20.6045 -15.3146 13.2292 -16.7079 0.837234 0.0462048 0.000530888 0.662642 
74.2505 94.4849 3.69537 -7.97495 -0.525581 -85.6175 -1.40351 26.8892 2.58037 1.15099 23.7436 10.4643 -11.45 -25.3458 -1.67516 -1.29703e-009 8.75252e-006 -1.46991e-008 -2.23047 16.517 -3.72753 6.26685 1.10265 -5.22651 37.0382 1.77888 0.112907 24.8082 -27.367 -26.1914 10.6828 42.4693 -1.17359 -14.8284 9.27602 -0.305854 -41.7601 3.34182 -3.43059 -31.3753 -22.9023 -13.3019 14.7639 31.9987 -59.7834 5.82328 9.61819 -0.917488 0.170344 -15.9564 -1.73259 -2.23637 -26.3068 -7.48311 -0.205745 22.8079 -15.0252 10.7462 -14.0199 0.40917 0.0462048 0.000530888 0.662642 
67.9391 93.8008 3.37955 -7.88688 1.64822 -85.6438 1.75907 26.1105 2.34217 0.846512 31.3217 12.1683 -13.6544 -18.2976 -1.23339 -1.29703e-009 8.75252e-006 -1.46991e-008 1.99187 15.4619 -4.23814 5.36644 0.549221 -4.86662 36.9241 1.77073 0.103926 23.2017 -29.1635 -27.7945 10.2268 41.4038 -1.64293 -14.5447 9.29814 -0.386473 -42.1922 3.40213 -3.48802 -31.0555 -21.6506 -10.6594 14.9786 32.3877 -59.0389 5.82328 9.61819 -0.917488 -0.645894 -14.6978 -1.71006 1.0756 -26.4695 -7.52533 -0.97279 28.6305 -13.7844 6.33078 -9.61551 -0.0733303 0.0462048 0.000530888 0.662642 
61.9713 93.3762 3.05022 -8.22763 4.19062 -86.6536 4.81946 22.324 3.60756 1.2017 43.136 15.1017 -9.86547 -5.4603 0.146825 -1.29703e-009 8.75252e-006 -1.46991e-008 6.52079 15.447 -4.29515 4.32973 -0.0884562 -3.97708 36.8961 1.77316 0.111987 23.2964 -30.7945 -25.9966 10.0635 41.0553 -2.30927 -14.2731 9.31012 -0.387417 -42.7886 3.48407 -3.56266 -30.9622 -20.2141 -7.45149 15.06 33.0945 -57.1971 5.82328 9.61819 -0.917488 -1.37376 -14.3687 -1.52002 5.06114 -26.3279 -5.42023 -0.995888 34.8556 -14.0218 2.17752 -8.12558 -0.180045 0.0462048 0.000530888 0.662642 
56.8294 93.0875 2.65302 -8.52681 6.63626 -86.9655 7.68453 15.2159 3.21658 1.6673 57.1538 18.0976 -4.60925 6.37781 0.543384 -1.29703e-009 8.75252e-006 -1.46991e-008 10.015 15.7624 -4.34724 4.54306 0.34881 -3.19334 37.1159 1.77332 0.0933916 25.6471 -31.6925 -20.4952 10.2186 41.1414 -2.62502 -14.5494 9.28857 -0.30699 -43.286 3.54637 -3.61092 -31.5875 -18.1131 -5.25546 14.3364 34.006 -53.3163 5.82328 9.61819 -0.917488 -1.58509 -15.2752 -1.7102 8.50269 -25.3155 -4.30221 -1.07915 39.563 -14.3039 0.240278 -11.2679 -0.183818 0.0462048 0.000530888 0.662642 
51.9909 93.3478 2.25043 -8.62979 8.11311 -86.1996 9.10521 6.65074 1.59419 2.59732 69.7155 18.3088 -2.12619 9.36043 0.258571 -1.29703e-009 8.75252e-006 -1.46991e-008 12.0938 15.7828 -4.30157 5.20952 0.908292 -2.57491 37.3247 1.76168 0.0486711 29.4943 -31.1869 -13.1719 10.3498 40.6115 -1.63616 -14.9694 9.2612 -0.23506 -43.6933 3.58418 -3.62317 -32.4044 -14.5875 -3.91844 12.2673 34.7323 -46.842 5.82328 9.61819 -0.917488 -1.36422 -15.9702 -2.62303 10.5019 -22.6054 -4.41295 -1.12568 41.0718 -14.7704 1.01107 -15.895 -0.14765 0.0462048 0.000530888 0.662642 
46.8848 94.4887 1.9367 -8.63023 8.42257 -85.7685 8.55214 -1.5297 0.370031 4.29464 77.9619 15.1104 -1.1499 5.13009 0.0761312 -1.29703e-009 8.75252e-006 -1.46991e-008 13.1903 15.5972 -3.78017 4.74995 0.44495 -1.69874 37.1913 1.74718 0.0265925 33.5792 -29.533 -5.92913 10.0904 39.2 1.04316 -14.9174 9.25044 -0.126008 -44.105 3.61323 -3.61711 -32.819 -9.67389 -2.35948 8.86065 34.4383 -38.4376 5.82328 9.61819 -0.917488 -1.20738 -15.2365 -3.98991 11.1332 -18.0295 -4.88744 -1.10805 39.272 -14.6189 2.89336 -18.7647 0.0386261 0.0462048 0.000530888 0.662642 
41.7117 95.903 1.76157 -8.4737 8.10946 -86.3698 7.0706 -8.86415 -0.0104207 5.56635 81.1939 11.6103 -1.86162 -0.135568 0.105596 -1.29703e-009 8.75252e-006 -1.46991e-008 14.1277 15.2539 -2.89294 3.08637 -0.298859 -0.44018 36.769 1.74062 0.0472777 37.3406 -26.4319 0.899601 9.10884 36.3817 5.37631 -14.3444 9.24345 0.163736 -44.4096 3.62445 -3.59245 -33.0031 -4.26975 -0.168236 4.81442 32.2132 -29.7796 5.82328 9.61819 -0.917488 -1.3962 -13.6552 -5.29957 10.9589 -12.9799 -5.20959 -0.98031 36.3242 -13.5259 4.15713 -20.2853 0.213459 0.0462048 0.000530888 0.662642 
36.5198 97.0892 1.6345 -8.20295 7.27315 -87.619 5.1849 -15.4001 0.03621 4.78363 80.2324 11.609 -2.52371 -3.10322 0.107605 -1.29703e-009 8.75252e-006 -1.46991e-008 14.4569 14.6215 -1.81933 1.14983 -0.557828 0.867461 36.325 1.73852 0.0805856 39.876 -18.994 7.22073 7.23876 29.2561 11.3479 -13.5153 9.24501 0.517866 -44.4449 3.59988 -3.53904 -33.0313 -2.1673 2.51572 1.18137 30.856 -22.4869 5.82328 9.61819 -0.917488 -1.83815 -12.4821 -6.27565 10.016 -7.88753 -5.14834 -0.410227 33.2124 -12.2989 4.91987 -22.1427 0.373041 0.0462048 0.000530888 0.662642 
31.2809 98.0057 1.45622 -8.08137 5.90203 -88.8568 3.05859 -20.8199 0.0636313 3.40617 75.9168 13.9624 -2.08486 -5.6576 0.0550595 -1.29703e-009 8.75252e-006 -1.46991e-008 13.6357 14.156 -0.752499 -0.575803 -0.734481 1.86621 35.9375 1.72966 0.0934807 40.1553 -9.54303 12.8861 5.54679 20.0573 17.8469 -12.8734 9.26024 0.690683 -44.32 3.55586 -3.47182 -31.4574 -9.76997 5.76896 -2.67377 37.6654 -16.2807 5.82328 9.61819 -0.917488 -2.30197 -12.0404 -6.86286 8.36059 -2.35497 -4.4358 0.619014 29.4535 -11.866 5.771 -23.8904 0.564533 0.0462048 0.000530888 0.662642 
26.1756 98.54 1.25238 -8.24895 4.71259 -89.8662 1.67774 -24.7876 0.164436 2.40989 68.5262 16.408 -2.84803 -8.79582 0.00418983 -1.29703e-009 8.75252e-006 -1.46991e-008 12.5936 14.275 0.030485 -2.00444 -1.06376 2.49343 35.4965 1.71439 0.0958956 39.8439 -5.62463 18.5705 4.74242 16.4208 23.6002 -12.956 9.25099 0.738002 -44.3412 3.53113 -3.42024 -28.372 -17.3848 9.77364 -6.48888 44.008 -10.4086 5.82328 9.61819 -0.917488 -2.68906 -12.026 -7.02856 6.91864 3.1672 -4.48781 1.07023 25.694 -10.8113 5.93838 -24.6997 0.62856 0.0462048 0.000530888 0.662642 
21.1601 98.5807 1.04906 -8.45077 4.14123 -90.9286 1.57206 -27.1416 0.726347 1.74046 58.0285 17.6963 -4.77417 -10.7392 -0.0773173 -1.29703e-009 8.75252e-006 -1.46991e-008 11.8862 14.3886 0.636254 -3.06769 -0.961233 2.9524 35.015 1.69945 0.102613 40.6024 -7.09834 24.6578 4.50136 18.4186 28.4157 -13.6577 9.20057 0.855745 -44.5862 3.53277 -3.38707 -24.9679 -21.3451 14.0123 -9.44695 46.6636 -5.73117 5.82328 9.61819 -0.917488 -2.96106 -12.3707 -6.81627 6.23274 8.20627 -4.92186 1.00173 22.6627 -9.42899 5.03629 -25.3601 0.515424 0.0462048 0.000530888 0.662642 
